<?xml version="1.0" encoding="UTF-8"?>
<svg id="Layer_1" xmlns="http://www.w3.org/2000/svg" xmlns:i="http://ns.adobe.com/AdobeIllustrator/10.0/" version="1.1" viewBox="0 0 609.8 87.3">
  <!-- Generator: Adobe Illustrator 30.6.0, SVG Export Plug-In . SVG Version: 2.1.4 Build 109)  -->
  <defs>
    <style>
      .st0 {
        fill: #fff;
      }
    </style>
  </defs>
  <path class="st0" d="M.4,32.8c0-4.2,0-7.3-.4-10.9h4.3l.3,8.3h.2c2.5-5.1,8.3-9.3,15.7-9.3s16,2.2,16,19.3v27.3h-4.6v-27c0-8.3-3.2-15.8-12.6-15.8s-11.9,4.6-13.7,10.4c-.3,1.1-.6,2.7-.6,4.1v28.2H.4v-34.7Z"/>
  <path class="st0" d="M90.2,44.2c0,17-11.7,24.3-21.8,24.3s-20.9-9.2-20.9-23.5,10.3-24.2,21.6-24.2,21.2,9.5,21.2,23.4ZM52,44.7c0,11.4,7.3,19.9,16.6,19.9s17-8.5,17-20.2-4.7-19.8-16.7-19.8-16.9,10.4-16.9,20.1Z"/>
  <path class="st0" d="M100.5,21.8l7.7,25.9c1.5,5.3,2.8,9.9,3.9,14.2h.2c1.1-4.2,2.8-9,4.6-14.2l9.1-25.9h4.3l8.7,25.7c1.9,5.5,3.3,10.2,4.5,14.4h.2c.9-4.3,2.4-8.8,4.2-14.3l8.1-25.8h4.7l-15.2,45.6h-3.9l-8.6-25.4c-1.9-5.5-3.5-10.4-4.7-15.6h-.2c-1.3,5.3-3,10.4-4.9,15.7l-9,25.3h-4l-14.1-45.6h4.7Z"/>
  <path class="st0" d="M181.2,35.8c0-5.8-.2-10.7-.4-14.8h12.2l.7,6.3h.3c2-2.9,6.1-7.3,14.1-7.3s10.7,3,12.7,7.9h.2c1.7-2.5,3.8-4.3,6-5.6,2.6-1.5,5.4-2.3,8.8-2.3,8.9,0,15.7,6.3,15.7,20.1v27.3h-14.1v-25.3c0-6.7-2.2-10.6-6.8-10.6s-5.7,2.3-6.6,5c-.4,1-.6,2.6-.6,3.7v27.2h-14.1v-26c0-5.9-2.1-9.9-6.6-9.9s-5.9,2.8-6.7,5.2c-.5,1.1-.6,2.5-.6,3.6v27.1h-14.1v-31.6Z"/>
  <path class="st0" d="M301.6,56.1c0,4.5.2,8.7.7,11.3h-13l-.9-4.7h-.3c-3,3.7-7.8,5.7-13.3,5.7-9.4,0-15-6.8-15-14.2,0-12.1,10.8-17.9,27.3-17.8v-.7c0-2.5-1.3-6-8.5-6s-9.8,1.6-12.8,3.5l-2.7-9.3c3.2-1.8,9.6-4.1,18-4.1,15.5,0,20.4,9.1,20.4,20v16.1ZM287.5,45.5c-7.6,0-13.5,1.7-13.5,7.3s2.5,5.5,5.7,5.5,6.6-2.4,7.5-5.3c.2-.8.3-1.6.3-2.5v-5Z"/>
  <path class="st0" d="M312.9,36.3c0-6.8-.2-11.3-.4-15.3h12.4l.5,8.5h.4c2.4-6.7,8.1-9.6,12.5-9.6s2,0,3,.2v13.7c-1-.3-2.3-.5-3.9-.5-5.3,0-8.9,2.8-9.9,7.3-.2.9-.3,2.1-.3,3.2v23.5h-14.4v-31.1Z"/>
  <path class="st0" d="M363.2,40.5h.2c1-1.9,2.2-3.8,3.3-5.6l9.4-14h17.4l-16.6,18.8,19,27.6h-17.8l-11.2-19.1-3.7,4.6v14.5h-14.4V0h14.4v40.5Z"/>
  <path class="st0" d="M410,48.8c.5,6,6.4,8.8,13.1,8.8s8.9-.7,12.8-1.9l1.9,9.8c-4.7,1.9-10.5,2.9-16.8,2.9-15.8,0-24.8-9.2-24.8-23.7s7.3-24.8,23.5-24.8,20.7,11.7,20.7,23.2-.3,4.7-.5,5.7h-29.9ZM427,38.9c0-3.5-1.5-9.4-8.2-9.4s-8.5,5.5-8.9,9.4h17.1Z"/>
  <path class="st0" d="M465.1,8.4v12.6h10.4v10.6h-10.4v16.8c0,5.6,1.3,8.2,5.7,8.2s2.8,0,4.3-.4v10.9c-1.8.8-5.2,1.3-9.3,1.3s-8.5-1.7-10.8-4.1c-2.7-2.8-4-7.2-4-13.8v-19h-6.2v-10.6h6.2v-8.7l14.1-3.9Z"/>
  <path class="st0" d="M498.8,8.1c0,4-3,7.2-7.8,7.2s-7.6-3.2-7.5-7.2c0-4.2,2.9-7.3,7.6-7.3s7.6,3.1,7.7,7.3ZM483.9,67.4V21h14.4v46.4h-14.4Z"/>
  <path class="st0" d="M509.9,35.8c0-5.8-.2-10.7-.4-14.8h12.5l.7,6.4h.3c1.9-2.9,6.6-7.4,14.3-7.4s16.6,6.3,16.6,19.9v27.5h-14.4v-25.7c0-6-2.1-10.1-7.3-10.1s-6.4,2.8-7.3,5.4c-.4.9-.6,2.3-.6,3.6v26.8h-14.4v-31.6Z"/>
  <path class="st0" d="M609.5,60.7c0,8.9-1.8,16.2-7,20.9-5.1,4.4-12.1,5.7-18.9,5.7s-12.5-1.2-16.7-3.6l2.8-10.9c2.9,1.7,8.1,3.5,13.5,3.5s12.1-3.7,12.1-12.2v-3h-.2c-2.8,3.9-7.2,6.1-12.5,6.1-11.5,0-19.7-9.3-19.7-22.7s9.7-24.4,21.1-24.4,10.3,2.8,12.7,6.6h.2l.5-5.5h12.5c-.2,2.9-.4,6.8-.4,13.8v25.9ZM595,39.9c0-.9,0-1.9-.3-2.7-1-3.8-3.8-6.4-7.8-6.4s-9.5,4.7-9.5,13.2,3.4,12.3,9.5,12.3,6.6-2.5,7.6-5.9c.4-1,.5-2.6.5-3.8v-6.8Z"/>
  </svg>