<?xml version="1.0" encoding="UTF-8"?>
<svg xmlns="http://www.w3.org/2000/svg" viewBox="0 0 609.85 87.26" width="610" height="87">
  <defs>
    <style>
      .cls-1 {
        fill: #fff;
      }
    </style>
  </defs>
  <path class="cls-1" d="M.38,32.76c0-4.18-.09-7.31-.38-10.92h4.27l.29,8.26h.19c2.47-5.13,8.26-9.31,15.67-9.31,4.37,0,15.95,2.18,15.95,19.28v27.35h-4.56v-26.97c0-8.26-3.23-15.76-12.63-15.76-6.36,0-11.87,4.56-13.67,10.44-.28,1.14-.57,2.66-.57,4.08v28.2H.38v-34.66Z"/>
  <path class="cls-1" d="M90.2,44.15c0,17-11.68,24.31-21.84,24.31-11.77,0-20.89-9.21-20.89-23.45,0-15.57,10.26-24.21,21.56-24.21,12.63,0,21.17,9.5,21.17,23.36ZM52.03,44.72c0,11.39,7.31,19.94,16.62,19.94s17-8.55,17-20.23c0-8.36-4.65-19.85-16.71-19.85s-16.9,10.35-16.9,20.13Z"/>
  <path class="cls-1" d="M100.46,21.84l7.69,25.92c1.52,5.32,2.85,9.88,3.89,14.24h.19c1.14-4.18,2.75-9.02,4.56-14.24l9.12-25.92h4.27l8.74,25.73c1.9,5.51,3.32,10.16,4.46,14.43h.19c.95-4.27,2.37-8.83,4.18-14.34l8.07-25.83h4.65l-15.19,45.58h-3.89l-8.64-25.35c-1.9-5.51-3.51-10.44-4.75-15.57h-.19c-1.33,5.32-3.04,10.45-4.94,15.67l-9.02,25.26h-3.99l-14.05-45.58h4.65Z"/>
  <path class="cls-1" d="M181.16,35.8c0-5.79-.19-10.73-.38-14.81h12.15l.66,6.27h.28c1.99-2.94,6.08-7.31,14.05-7.31,5.98,0,10.73,3.04,12.72,7.88h.19c1.71-2.47,3.8-4.27,5.98-5.6,2.56-1.52,5.41-2.28,8.83-2.28,8.93,0,15.67,6.27,15.67,20.13v27.35h-14.05v-25.26c0-6.74-2.18-10.64-6.84-10.64-3.32,0-5.7,2.28-6.65,5.03-.38,1.04-.57,2.56-.57,3.7v27.16h-14.05v-26.02c0-5.89-2.09-9.88-6.65-9.88-3.7,0-5.89,2.85-6.74,5.22-.48,1.14-.57,2.47-.57,3.61v27.06h-14.05v-31.62Z"/>
  <path class="cls-1" d="M301.56,56.12c0,4.46.19,8.74.66,11.3h-13.01l-.85-4.65h-.29c-3.04,3.7-7.79,5.7-13.29,5.7-9.4,0-15-6.84-15-14.24,0-12.06,10.82-17.85,27.25-17.76v-.67c0-2.47-1.33-5.98-8.45-5.98-4.75,0-9.78,1.61-12.82,3.51l-2.66-9.31c3.23-1.8,9.59-4.08,18.04-4.08,15.48,0,20.42,9.12,20.42,20.04v16.14ZM287.5,45.48c-7.6-.09-13.48,1.71-13.48,7.31,0,3.7,2.47,5.51,5.7,5.51,3.61,0,6.55-2.37,7.5-5.32.19-.76.28-1.61.28-2.47v-5.03Z"/>
  <path class="cls-1" d="M312.95,36.27c0-6.84-.19-11.3-.38-15.29h12.44l.47,8.55h.38c2.37-6.74,8.07-9.59,12.53-9.59,1.33,0,1.99,0,3.04.19v13.67c-1.04-.29-2.28-.47-3.89-.47-5.32,0-8.93,2.85-9.88,7.31-.19.95-.29,2.09-.29,3.23v23.55h-14.43v-31.15Z"/>
  <path class="cls-1" d="M363.17,40.55h.19c1.04-1.9,2.18-3.8,3.32-5.6l9.4-13.96h17.38l-16.62,18.8,18.99,27.63h-17.76l-11.21-19.09-3.7,4.56v14.53h-14.43V0h14.43v40.55Z"/>
  <path class="cls-1" d="M409.98,48.81c.47,5.98,6.36,8.83,13.1,8.83,4.94,0,8.93-.67,12.82-1.9l1.9,9.78c-4.75,1.9-10.54,2.94-16.81,2.94-15.76,0-24.78-9.21-24.78-23.74,0-11.77,7.31-24.78,23.45-24.78,15,0,20.7,11.68,20.7,23.17,0,2.47-.29,4.65-.47,5.7h-29.91ZM426.98,38.93c0-3.51-1.52-9.4-8.17-9.4-6.08,0-8.55,5.51-8.93,9.4h17.09Z"/>
  <path class="cls-1" d="M465.15,8.36v12.63h10.35v10.64h-10.35v16.81c0,5.6,1.33,8.17,5.7,8.17,1.99,0,2.85-.09,4.27-.38l.09,10.92c-1.9.76-5.32,1.33-9.4,1.33-4.65,0-8.55-1.71-10.83-4.08-2.66-2.75-3.99-7.22-3.99-13.77v-18.99h-6.17v-10.64h6.17v-8.74l14.15-3.89Z"/>
  <path class="cls-1" d="M498.76,8.07c0,3.99-3.04,7.22-7.79,7.22s-7.6-3.23-7.5-7.22c-.09-4.18,2.94-7.31,7.6-7.31s7.6,3.13,7.69,7.31ZM483.85,67.42V20.98h14.43v46.43h-14.43Z"/>
  <path class="cls-1" d="M509.87,35.8c0-5.79-.19-10.73-.38-14.81h12.53l.67,6.36h.29c1.9-2.94,6.65-7.41,14.34-7.41,9.5,0,16.62,6.27,16.62,19.94v27.54h-14.43v-25.73c0-5.98-2.09-10.06-7.31-10.06-3.99,0-6.36,2.75-7.31,5.41-.38.95-.57,2.28-.57,3.61v26.78h-14.43v-31.62Z"/>
  <path class="cls-1" d="M609.47,60.68c0,8.93-1.8,16.24-7.03,20.89-5.13,4.37-12.06,5.7-18.9,5.7-6.08,0-12.53-1.23-16.71-3.61l2.85-10.92c2.94,1.71,8.07,3.51,13.48,3.51,6.84,0,12.06-3.7,12.06-12.25v-3.04h-.19c-2.75,3.89-7.22,6.08-12.53,6.08-11.49,0-19.66-9.31-19.66-22.69,0-14.91,9.69-24.4,21.08-24.4,6.36,0,10.35,2.75,12.72,6.55h.19l.47-5.51h12.53c-.19,2.94-.38,6.84-.38,13.77v25.92ZM595.04,39.88c0-.95-.09-1.9-.29-2.66-1.04-3.8-3.8-6.36-7.79-6.36-5.22,0-9.5,4.75-9.5,13.2,0,6.93,3.42,12.34,9.5,12.34,3.7,0,6.65-2.47,7.6-5.89.38-1.04.47-2.56.47-3.8v-6.84Z"/>
</svg>